<?xml version="1.0" standalone="no"?>
<!DOCTYPE svg PUBLIC "-//W3C//DTD SVG 20010904//EN"
 "http://www.w3.org/TR/2001/REC-SVG-20010904/DTD/svg10.dtd">
<svg version="1.0" xmlns="http://www.w3.org/2000/svg"
 width="388.000000pt" height="388.000000pt" viewBox="0 0 388.000000 388.000000"
 preserveAspectRatio="xMidYMid meet">

<g transform="translate(0.000000,388.000000) scale(0.100000,-0.100000)"
fill="#000000" stroke="none">
<path d="M970 2905 l-965 -965 968 -967 967 -968 752 752 753 753 -108 107
-107 108 -643 -643 c-353 -353 -647 -642 -652 -642 -6 0 -347 336 -758 748
l-747 748 750 749 c413 413 753 752 756 755 3 2 295 -286 649 -640 l645 -645
107 108 108 107 -750 750 c-412 413 -752 750 -755 750 -3 0 -439 -434 -970
-965z"/>
<path d="M1395 2474 l-528 -536 536 -536 537 -537 107 107 108 108 -425 425
c-234 234 -427 428 -430 431 -2 3 189 198 425 434 l430 430 -105 105 c-58 58
-110 105 -116 105 -6 0 -248 -241 -539 -536z"/>
</g>
</svg>
